<svg width="65" height="65" viewBox="0 0 65 65" fill="none" xmlns="http://www.w3.org/2000/svg">
<path d="M25.0521 59.5834L23.9687 50.9167C23.3819 50.691 22.829 50.4202 22.3099 50.1042C21.7908 49.7882 21.283 49.4497 20.7865 49.0886L12.7292 52.474L5.28125 39.6094L12.2552 34.3281C12.2101 34.0122 12.1875 33.7075 12.1875 33.4141V31.586C12.1875 31.2926 12.2101 30.9879 12.2552 30.6719L5.28125 25.3906L12.7292 12.5261L20.7865 15.9115C21.283 15.5504 21.8021 15.2118 22.3438 14.8959C22.8854 14.5799 23.4271 14.309 23.9687 14.0834L25.0521 5.41669H39.9479L41.0312 14.0834C41.6181 14.309 42.171 14.5799 42.6901 14.8959C43.2092 15.2118 43.717 15.5504 44.2135 15.9115L52.2708 12.5261L59.7187 25.3906L52.7448 30.6719C52.7899 30.9879 52.8125 31.2926 52.8125 31.586V33.4141C52.8125 33.7075 52.7674 34.0122 52.6771 34.3281L59.651 39.6094L52.2031 52.474L44.2135 49.0886C43.717 49.4497 43.1979 49.7882 42.6562 50.1042C42.1146 50.4202 41.5729 50.691 41.0312 50.9167L39.9479 59.5834H25.0521ZM32.6354 41.9792C35.2535 41.9792 37.4878 41.0538 39.3385 39.2031C41.1892 37.3525 42.1146 35.1181 42.1146 32.5C42.1146 29.882 41.1892 27.6476 39.3385 25.7969C37.4878 23.9462 35.2535 23.0209 32.6354 23.0209C29.9722 23.0209 27.7266 23.9462 25.8984 25.7969C24.0703 27.6476 23.1562 29.882 23.1562 32.5C23.1562 35.1181 24.0703 37.3525 25.8984 39.2031C27.7266 41.0538 29.9722 41.9792 32.6354 41.9792Z" fill="white"/>
<g clip-path="url(#clip0_1126_2190)" filter="url(#filter0_d_1126_2190)">
<path d="M36.875 32.0833C36.875 34.6133 34.915 36.6666 32.5 36.6666C30.085 36.6666 28.125 34.6133 28.125 32.0833H26.375C26.375 35.3191 28.6587 37.9775 31.625 38.4266V41.25H33.375V38.4266C36.3413 37.9775 38.625 35.3191 38.625 32.0833H36.875V32.0833Z" fill="white"/>
<path d="M32.5 34.8333C33.9525 34.8333 35.125 33.605 35.125 32.0833V26.5833C35.125 25.0616 33.9525 23.8333 32.5 23.8333C31.0475 23.8333 29.875 25.0616 29.875 26.5833V32.0833C29.875 33.605 31.0475 34.8333 32.5 34.8333ZM31.625 26.5833C31.625 26.0791 32.0187 25.6666 32.5 25.6666C32.9813 25.6666 33.375 26.0791 33.375 26.5833V32.0833C33.375 32.5875 32.9813 33 32.5 33C32.0187 33 31.625 32.5875 31.625 32.0833V26.5833Z" fill="white"/>
<path d="M32.5 34.8333C33.9525 34.8333 35.125 33.605 35.125 32.0833V26.5833C35.125 25.0616 33.9525 23.8333 32.5 23.8333C31.0475 23.8333 29.875 25.0616 29.875 26.5833V32.0833C29.875 33.605 31.0475 34.8333 32.5 34.8333Z" fill="white"/>
</g>
<defs>
<filter id="filter0_d_1126_2190" x="18" y="22" width="29" height="30" filterUnits="userSpaceOnUse" color-interpolation-filters="sRGB">
<feFlood flood-opacity="0" result="BackgroundImageFix"/>
<feColorMatrix in="SourceAlpha" type="matrix" values="0 0 0 0 0 0 0 0 0 0 0 0 0 0 0 0 0 0 127 0" result="hardAlpha"/>
<feOffset dy="4"/>
<feGaussianBlur stdDeviation="2"/>
<feComposite in2="hardAlpha" operator="out"/>
<feColorMatrix type="matrix" values="0 0 0 0 0 0 0 0 0 0 0 0 0 0 0 0 0 0 0.25 0"/>
<feBlend mode="normal" in2="BackgroundImageFix" result="effect1_dropShadow_1126_2190"/>
<feBlend mode="normal" in="SourceGraphic" in2="effect1_dropShadow_1126_2190" result="shape"/>
</filter>
<clipPath id="clip0_1126_2190">
<rect width="21" height="22" fill="white" transform="translate(22 22)"/>
</clipPath>
</defs>
</svg>
