<svg width="26011" height="28002" viewBox="0 0 26011 28002" fill="none" xmlns="http://www.w3.org/2000/svg">
<path d="M6532.22 11917.4C5274.81 10550.5 5284.78 8343.56 6554.48 6988.08C7824.2 5632.61 9872.83 5641.86 11130.2 7008.75L19478.3 16083.7C20735.7 17450.6 20725.8 19657.5 19456 21012.9C18186.3 22368.5 16137.7 22359.2 14880.3 20992.3L11275.4 17073.6C10961.1 16731.9 10963.6 16180.1 11281 15841.3C11598.4 15502.4 12110.6 15504.7 12425 15846.4L15650.4 19352.6C16279.1 20036.1 17303.4 20040.7 17938.2 19363C18573.1 18685.2 18578.1 17581.8 17949.4 16898.3L14724 13392.1C13152.2 11683.5 10591.4 11671.9 9004.26 13366.3C7417.12 15060.7 7404.67 17819.3 8976.44 19527.9L12581.2 23446.7C15096.1 26180.4 19193.4 26198.9 21732.8 23488C24272.2 20777 24292.2 16363.1 21777.3 13629.4L13429.3 4554.43C10914.4 1820.64 6817.15 1802.13 4277.73 4513.1C1871.15 7082.26 1727.37 11180.8 3859.4 13929.5L3853.73 13959.2L4233.21 14371.7C4861.9 15055.1 5886.22 15059.7 6521.07 14382.1C7155.91 13704.3 7160.91 12600.8 6532.22 11917.4Z" fill="#002C84"/>
</svg>
