<svg width="7891" height="7891" viewBox="0 0 7891 7891" fill="none" xmlns="http://www.w3.org/2000/svg">
<path d="M6247.04 1315.17H5918.25V657.584H5260.67V1315.17H2630.33V657.584H1972.75V1315.17H1643.96C1279 1315.17 989.663 1611.08 989.663 1972.75L986.375 6575.83C986.375 6937.5 1279 7233.42 1643.96 7233.42H6247.04C6608.71 7233.42 6904.62 6937.5 6904.62 6575.83V1972.75C6904.62 1611.08 6608.71 1315.17 6247.04 1315.17ZM6247.04 6575.83H1643.96V3287.92H6247.04V6575.83ZM2959.12 4603.08H2301.54V3945.5H2959.12V4603.08ZM4274.29 4603.08H3616.71V3945.5H4274.29V4603.08ZM5589.46 4603.08H4931.87V3945.5H5589.46V4603.08ZM2959.12 5918.25H2301.54V5260.67H2959.12V5918.25ZM4274.29 5918.25H3616.71V5260.67H4274.29V5918.25ZM5589.46 5918.25H4931.87V5260.67H5589.46V5918.25Z" fill="#002C84"/>
</svg>
