<svg width="21721" height="21721" viewBox="0 0 21721 21721" fill="none" xmlns="http://www.w3.org/2000/svg">
<path fill-rule="evenodd" clip-rule="evenodd" d="M7242.09 4120.84C9682.38 3936.91 12133.5 3948.98 14571.8 4156.92L16041.4 4282.25C17151.4 4376.91 18052.3 5219.34 18221.1 6320.54L18313.8 6925.41C18628.4 8977.96 18599 11068.6 18226.8 13111.5C18043.1 14119.5 17165.1 14852 16140.5 14852H8016.46C7829.55 14852 7645.56 14898.3 7480.92 14986.8L3941.49 16888.9C3731.13 17002 3476.84 16996.2 3271.86 16873.6C3066.89 16751.1 2941.39 16529.8 2941.39 16291V8582.5C2941.39 6248.76 4740.07 4309.41 7067.21 4134.02L7242.09 4120.84ZM7240.33 8598.16C6615.53 8598.16 6109.03 9104.66 6109.03 9729.46C6109.03 10354.3 6615.53 10860.8 7240.33 10860.8C7865.14 10860.8 8371.64 10354.3 8371.64 9729.46C8371.64 9104.66 7865.14 8598.16 7240.33 8598.16ZM10860.5 8598.16C10235.7 8598.16 9729.2 9104.66 9729.2 9729.46C9729.2 10354.3 10235.7 10860.8 10860.5 10860.8C11485.3 10860.8 11991.8 10354.3 11991.8 9729.46C11991.8 9104.66 11485.3 8598.16 10860.5 8598.16ZM13349.4 9729.46C13349.4 9104.66 13855.9 8598.16 14480.7 8598.16C15105.5 8598.16 15612 9104.66 15612 9729.46C15612 10354.3 15105.5 10860.8 14480.7 10860.8C13855.9 10860.8 13349.4 10354.3 13349.4 9729.46Z" fill="white"/>
</svg>
