<svg width="215" height="210" viewBox="0 0 215 210" fill="none" xmlns="http://www.w3.org/2000/svg">
<path d="M30.1111 202H184.889C197.101 202 207 192.349 207 180.444V29.5556C207 17.6508 197.101 8 184.889 8H30.1111C17.8995 8 8 17.6508 8 29.5556V180.444C8 192.349 17.8995 202 30.1111 202ZM30.1111 202L151.722 83.4444L207 137.333M85.3889 67.2778C85.3889 76.2064 77.9643 83.4444 68.8056 83.4444C59.6468 83.4444 52.2222 76.2064 52.2222 67.2778C52.2222 58.3492 59.6468 51.1111 68.8056 51.1111C77.9643 51.1111 85.3889 58.3492 85.3889 67.2778Z" stroke="#002C84" stroke-width="15" stroke-linecap="round" stroke-linejoin="round"/>
</svg>
