<svg width="1648" height="1754" viewBox="0 0 1648 1754" fill="none" xmlns="http://www.w3.org/2000/svg">
<path d="M1464.89 830.842H1309.24C1309.24 899.156 1294.6 962.854 1269.88 1020.09L1382.49 1133.64C1433.76 1043.17 1464.89 940.698 1464.89 830.842ZM1096.84 846.536C1096.84 840.997 1098.67 836.381 1098.67 830.842V276.947C1098.67 123.703 975.982 0 824 0C672.018 0 549.333 123.703 549.333 276.947V293.564L1096.84 846.536ZM116.276 92.3158L0 209.557L550.249 764.375V830.842C550.249 984.086 672.018 1107.79 824 1107.79C844.142 1107.79 864.284 1105.02 883.511 1100.4L1035.49 1253.65C970.489 1284.11 898.16 1301.65 824 1301.65C571.307 1301.65 338.756 1107.79 338.756 830.842H183.111C183.111 1145.64 432.142 1405.97 732.444 1451.2V1754H915.556V1451.2C998.871 1439.2 1077.61 1409.66 1148.11 1368.12L1531.72 1754L1648 1636.76L116.276 92.3158Z" fill="white"/>
</svg>
