<svg width="2182" height="2153" viewBox="0 0 2182 2153" fill="none" xmlns="http://www.w3.org/2000/svg">
<path d="M1091 1255.92C1241.92 1255.92 1362.84 1135.71 1362.84 986.792L1363.75 448.542C1363.75 299.626 1241.92 179.417 1091 179.417C940.079 179.417 818.251 299.626 818.251 448.542V986.792C818.251 1135.71 940.079 1255.92 1091 1255.92ZM1572.86 986.792C1572.86 1255.92 1341.93 1444.3 1091 1444.3C840.071 1444.3 609.142 1255.92 609.142 986.792H454.584C454.584 1292.7 701.877 1545.67 1000.08 1589.63V1883.88H1181.92V1589.63C1480.12 1546.57 1727.42 1293.59 1727.42 986.792H1572.86Z" fill="white"/>
</svg>
