<svg width="422" height="439" viewBox="0 0 422 439" fill="none" xmlns="http://www.w3.org/2000/svg">
<path d="M188.336 418.095H41.9557C18.744 418.095 0.132812 399.281 0.132812 376.286L0.341927 83.619C0.341927 60.6238 18.744 41.8095 41.9557 41.8095H62.8672V0H104.69V41.8095H271.982V0H313.805V41.8095H334.716C357.719 41.8095 376.539 60.6238 376.539 83.619V209.048H334.716V167.238H41.9557V376.286H188.336V418.095ZM400.169 313.362L415.016 298.52C423.172 290.367 423.172 277.197 415.016 269.044L400.169 254.202C392.014 246.049 378.839 246.049 370.684 254.202L355.837 269.044L400.169 313.362ZM385.322 328.205L274.491 439H230.159V394.682L340.99 283.887L385.322 328.205Z" fill="white"/>
</svg>
