<svg width="400" height="419" viewBox="0 0 400 419" fill="none" xmlns="http://www.w3.org/2000/svg">
<g clip-path="url(#clip0_1114_1930)">
<path fill-rule="evenodd" clip-rule="evenodd" d="M233.333 34.9163H166.667V69.833C166.667 89.117 151.743 104.75 133.333 104.75C114.924 104.75 100 89.117 100 69.833V35.3901C98.5542 35.4737 97.1555 35.5721 95.803 35.6879C86.4347 36.4897 77.823 38.2104 69.734 42.5277C57.1899 49.2229 46.9912 59.906 40.5996 73.046C36.4781 81.5192 34.8354 90.5399 34.07 100.353C33.333 109.801 33.3332 121.4 33.3334 135.453V139.666H366.667V135.453C366.667 121.4 366.667 109.801 365.93 100.353C365.165 90.5399 363.522 81.5192 359.4 73.046C353.009 59.906 342.81 49.2229 330.266 42.5277C322.177 38.2104 313.565 36.4897 304.197 35.6879C302.845 35.5721 301.446 35.4737 300 35.3901V69.833C300 89.117 285.076 104.75 266.667 104.75C248.257 104.75 233.333 89.117 233.333 69.833V34.9163ZM366.667 174.583H33.3334V283.546C33.3332 297.599 33.333 309.198 34.07 318.646C34.8354 328.459 36.4781 337.48 40.5996 345.953C46.9912 359.093 57.1899 369.776 69.734 376.472C77.823 380.789 86.4347 382.51 95.803 383.311C104.823 384.083 115.895 384.083 129.311 384.083H270.689C284.105 384.083 295.177 384.083 304.197 383.311C313.565 382.51 322.177 380.789 330.266 376.472C342.81 369.776 353.009 359.093 359.4 345.953C363.522 337.48 365.165 328.459 365.93 318.646C366.667 309.198 366.667 297.599 366.667 283.546V174.583Z" fill="#A0AEBA"/>
<path fill-rule="evenodd" clip-rule="evenodd" d="M133.333 17.458C142.538 17.458 150 25.2744 150 34.9163V69.833C150 79.475 142.538 87.2913 133.333 87.2913C124.129 87.2913 116.667 79.475 116.667 69.833V34.9163C116.667 25.2744 124.129 17.458 133.333 17.458Z" fill="#A0AEBA"/>
<path fill-rule="evenodd" clip-rule="evenodd" d="M266.667 17.458C275.871 17.458 283.333 25.2744 283.333 34.9163V69.833C283.333 79.475 275.871 87.2913 266.667 87.2913C257.462 87.2913 250 79.475 250 69.833V34.9163C250 25.2744 257.462 17.458 266.667 17.458Z" fill="#A0AEBA"/>
</g>
<g filter="url(#filter0_d_1114_1930)">
<path d="M197.438 332.1C187.404 332.1 178.421 329.65 170.488 324.75C162.554 319.733 156.313 312.5 151.763 303.05C147.213 293.6 144.938 282.167 144.938 268.75C144.938 255.333 147.213 243.9 151.763 234.45C156.313 225 162.554 217.825 170.488 212.925C178.421 207.908 187.404 205.4 197.438 205.4C207.588 205.4 216.571 207.908 224.388 212.925C232.321 217.825 238.563 225 243.113 234.45C247.663 243.9 249.938 255.333 249.938 268.75C249.938 282.167 247.663 293.6 243.113 303.05C238.563 312.5 232.321 319.733 224.388 324.75C216.571 329.65 207.588 332.1 197.438 332.1ZM197.438 308.125C202.221 308.125 206.363 306.783 209.863 304.1C213.479 301.417 216.279 297.158 218.263 291.325C220.363 285.492 221.413 277.967 221.413 268.75C221.413 259.533 220.363 252.008 218.263 246.175C216.279 240.342 213.479 236.083 209.863 233.4C206.363 230.717 202.221 229.375 197.438 229.375C192.771 229.375 188.629 230.717 185.013 233.4C181.513 236.083 178.713 240.342 176.613 246.175C174.629 252.008 173.638 259.533 173.638 268.75C173.638 277.967 174.629 285.492 176.613 291.325C178.713 297.158 181.513 301.417 185.013 304.1C188.629 306.783 192.771 308.125 197.438 308.125Z" fill="white"/>
</g>
<defs>
<filter id="filter0_d_1114_1930" x="140.938" y="205.4" width="113" height="134.699" filterUnits="userSpaceOnUse" color-interpolation-filters="sRGB">
<feFlood flood-opacity="0" result="BackgroundImageFix"/>
<feColorMatrix in="SourceAlpha" type="matrix" values="0 0 0 0 0 0 0 0 0 0 0 0 0 0 0 0 0 0 127 0" result="hardAlpha"/>
<feOffset dy="4"/>
<feGaussianBlur stdDeviation="2"/>
<feComposite in2="hardAlpha" operator="out"/>
<feColorMatrix type="matrix" values="0 0 0 0 0 0 0 0 0 0 0 0 0 0 0 0 0 0 0.25 0"/>
<feBlend mode="normal" in2="BackgroundImageFix" result="effect1_dropShadow_1114_1930"/>
<feBlend mode="normal" in="SourceGraphic" in2="effect1_dropShadow_1114_1930" result="shape"/>
</filter>
<clipPath id="clip0_1114_1930">
<rect width="400" height="419" fill="white"/>
</clipPath>
</defs>
</svg>
