<svg width="2134" height="2134" viewBox="0 0 2134 2134" fill="none" xmlns="http://www.w3.org/2000/svg">
<path fill-rule="evenodd" clip-rule="evenodd" d="M1482.25 1167.48C1604.06 1250.17 1689.42 1362.2 1689.42 1511.58V1778.33H2045.09V1511.58C2045.09 1317.75 1727.66 1203.04 1482.25 1167.48Z" fill="#002C84"/>
<path d="M800.25 1067C996.68 1067 1155.92 907.763 1155.92 711.334C1155.92 514.904 996.68 355.667 800.25 355.667C603.821 355.667 444.584 514.904 444.584 711.334C444.584 907.763 603.821 1067 800.25 1067Z" fill="#002C84"/>
<path fill-rule="evenodd" clip-rule="evenodd" d="M1333.75 1067C1530.26 1067 1689.42 907.839 1689.42 711.334C1689.42 514.828 1530.26 355.667 1333.75 355.667C1291.96 355.667 1252.84 364.559 1215.5 377.007C1289.3 468.591 1333.75 585.072 1333.75 711.334C1333.75 837.595 1289.3 954.076 1215.5 1045.66C1252.84 1058.11 1291.96 1067 1333.75 1067Z" fill="#002C84"/>
<path fill-rule="evenodd" clip-rule="evenodd" d="M800.25 1155.92C562.843 1155.92 88.917 1275.07 88.917 1511.58V1778.33H1511.58V1511.58C1511.58 1275.07 1037.66 1155.92 800.25 1155.92Z" fill="#002C84"/>
</svg>
