<svg width="3411" height="3411" viewBox="0 0 3411 3411" fill="none" xmlns="http://www.w3.org/2000/svg">
<path d="M1705.5 2984.62C1861.84 2984.62 1989.75 2856.71 1989.75 2700.38H1421.25C1421.25 2856.71 1547.74 2984.62 1705.5 2984.62ZM2558.25 2131.88V1421.25C2558.25 984.926 2325.16 619.665 1918.69 523.02V426.375C1918.69 308.411 1823.46 213.188 1705.5 213.188C1587.54 213.188 1492.31 308.411 1492.31 426.375V523.02C1084.41 619.665 852.75 984.926 852.75 1421.25V2131.88L568.5 2416.12V2558.25H2842.5V2416.12L2558.25 2131.88ZM1989.75 994.875L2131.88 1279.12L1989.75 1563.38H1705.5V2131.88H1421.25V1279.12V994.875H1492.31H1776.56H1989.75Z" fill="white"/>
</svg>
