<svg width="30987" height="30987" viewBox="0 0 30987 30987" fill="none" xmlns="http://www.w3.org/2000/svg">
<path d="M27427.1 16057.8C27632.1 15944 27759.2 15728 27759.2 15493.5C27759.2 15259.1 27632.1 15043 27427.1 14929.2L24480.4 13292.1C18674.8 10066.8 12554.8 7443.18 6215.75 5462.23L5357.06 5193.89C5161.04 5132.63 4947.57 5168.3 4782.11 5289.94C4616.65 5411.59 4518.94 5604.7 4518.94 5810.07V13234C4518.94 13577.4 4787.7 13860.7 5130.57 13878.7L6434.14 13947.3C9612.39 14114.6 12771.2 14545.7 15878.1 15236.1L16185.8 15304.4C16254.2 15319.7 16283.9 15347.7 16300.4 15369.9C16321.2 15397.9 16337.4 15441.1 16337.4 15493.5C16337.4 15545.9 16321.2 15589.1 16300.4 15617.1C16283.9 15639.4 16254.2 15667.4 16185.8 15682.6L15878.1 15750.9C12771.3 16441.3 9612.38 16872.4 6434.11 17039.7L5130.57 17108.3C4787.7 17126.3 4518.94 17409.6 4518.94 17753V25176.9C4518.94 25382.3 4616.65 25575.4 4782.11 25697.1C4947.57 25818.7 5161.04 25854.4 5357.05 25793.1L6215.76 25524.8C12554.8 23543.8 18674.8 20920.2 24480.3 17694.9L27427.1 16057.8Z" fill="white"/>
</svg>
