<?xml version="1.0" encoding="UTF-8"?>
<svg version="1.1" xmlns="http://www.w3.org/2000/svg" width="5040" height="5040">
<path d="M0 0 C416.79 0 833.58 0 1263 0 C1263 1463.88 1263 2927.76 1263 4436 C846.21 4436 429.42 4436 0 4436 C0 2972.12 0 1508.24 0 0 Z " fill="#FFFFFF" transform="translate(3544,302)"/>
<path d="M0 0 C416.79 0 833.58 0 1263 0 C1263 1005.51 1263 2011.02 1263 3047 C846.21 3047 429.42 3047 0 3047 C0 2041.49 0 1035.98 0 0 Z " fill="#FFFFFF" transform="translate(233,1691)"/>
<path d="M0 0 C416.79 0 833.58 0 1263 0 C1263 698.28 1263 1396.56 1263 2116 C846.21 2116 429.42 2116 0 2116 C0 1417.72 0 719.44 0 0 Z " fill="#FFFFFF" transform="translate(1889,2622)"/>
</svg>
