<svg width="26219" height="32769" viewBox="0 0 26219 32769" fill="none" xmlns="http://www.w3.org/2000/svg">
<path fill-rule="evenodd" clip-rule="evenodd" d="M22854.8 0.144419C24659.2 -8.6835 26129.1 1446.94 26137.9 3251.36L26217.9 19587.4L15599.5 19639.3C14246.2 19645.9 13154.4 20748.4 13161 22101.7L13213 32720.1L3411.39 32768.1C1606.96 32776.9 137.031 31321.3 128.203 29516.8L0.331341 3379.23C-8.49634 1574.81 1447.12 104.876 3251.55 96.0479L22854.8 0.144419ZM26162.9 22854.9C26036.1 23469.6 25733.4 24039.9 25284.9 24492.9L18109.1 31739.2C17660.6 32192.1 17093.3 32500.4 16479.8 32633.2L16432.2 22902.5L26162.9 22854.9ZM9857.88 14766.5L8224.28 14774.5C7322.07 14778.9 6594.25 15513.8 6598.67 16416.1C6603.08 17318.3 7338.06 18046.1 8240.26 18041.7L9873.86 18033.7C10776.1 18029.3 11503.9 17294.3 11499.5 16392.1C11495.1 15489.9 10760.1 14762.1 9857.88 14766.5ZM17993.9 8192.12L8192.31 8240.08C7290.1 8244.49 6562.29 8979.46 6566.7 9881.67C6571.11 10783.9 7306.09 11511.7 8208.29 11507.3L18009.9 11459.3C18912.1 11454.9 19639.9 10720 19635.5 9817.73C19631.1 8915.53 18896.1 8187.71 17993.9 8192.12Z" fill="white"/>
</svg>
